<?xml version="1.0" encoding="UTF-8" standalone="no"?>
<!-- Created with Inkscape (http://www.inkscape.org/) -->

<svg
   xmlns:dc="http://purl.org/dc/elements/1.1/"
   xmlns:cc="http://creativecommons.org/ns#"
   xmlns:rdf="http://www.w3.org/1999/02/22-rdf-syntax-ns#"
   xmlns:svg="http://www.w3.org/2000/svg"
   xmlns="http://www.w3.org/2000/svg"
   xmlns:sodipodi="http://sodipodi.sourceforge.net/DTD/sodipodi-0.dtd"
   xmlns:inkscape="http://www.inkscape.org/namespaces/inkscape"
   width="1000"
   height="1000"
   viewBox="0 0 264.58333 264.58333"
   version="1.1"
   id="svg8"
   inkscape:version="0.92.4 (5da689c313, 2019-01-14)"
   sodipodi:docname="duodraco_final.svg"
   inkscape:export-filename="/home/duodraco/Drawing/duodraco.svg.png"
   inkscape:export-xdpi="96"
   inkscape:export-ydpi="96">
  <defs
     id="defs2">
    <marker
       inkscape:stockid="Arrow1Lstart"
       orient="auto"
       refY="0.0"
       refX="0.0"
       id="marker5053"
       style="overflow:visible"
       inkscape:isstock="true">
      <path
         id="path5051"
         d="M 0.0,0.0 L 5.0,-5.0 L -12.5,0.0 L 5.0,5.0 L 0.0,0.0 z "
         style="fill-rule:evenodd;stroke:#000000;stroke-width:1.0pt"
         transform="scale(0.8) translate(12.5,0)" />
    </marker>
    <marker
       inkscape:stockid="Arrow1Lstart"
       orient="auto"
       refY="0.0"
       refX="0.0"
       id="Arrow1Lstart"
       style="overflow:visible"
       inkscape:isstock="true">
      <path
         id="path4784"
         d="M 0.0,0.0 L 5.0,-5.0 L -12.5,0.0 L 5.0,5.0 L 0.0,0.0 z "
         style="fill-rule:evenodd;stroke:#000000;stroke-width:1.0pt"
         transform="scale(0.8) translate(12.5,0)" />
    </marker>
  </defs>
  <sodipodi:namedview
     id="base"
     pagecolor="#ffffff"
     bordercolor="#666666"
     borderopacity="1.0"
     inkscape:pageopacity="0.0"
     inkscape:pageshadow="2"
     inkscape:zoom="0.70710678"
     inkscape:cx="943.78392"
     inkscape:cy="449.99131"
     inkscape:document-units="px"
     inkscape:current-layer="layer1"
     showgrid="false"
     showguides="false"
     inkscape:guide-bbox="true"
     units="px"
     inkscape:window-width="1920"
     inkscape:window-height="1043"
     inkscape:window-x="1920"
     inkscape:window-y="0"
     inkscape:window-maximized="1">
    <sodipodi:guide
       position="760.77417,661.41935"
       orientation="1,0"
       id="guide3680"
       inkscape:locked="false" />
    <sodipodi:guide
       position="198.4375,123.76481"
       orientation="1,0"
       id="guide3682"
       inkscape:locked="false"
       inkscape:label=""
       inkscape:color="rgb(0,0,255)" />
    <sodipodi:guide
       position="262.3138,238.125"
       orientation="0,1"
       id="guide3684"
       inkscape:locked="false"
       inkscape:label=""
       inkscape:color="rgb(0,0,255)" />
    <sodipodi:guide
       position="94.618827,26.458333"
       orientation="0,1"
       id="guide3686"
       inkscape:locked="false"
       inkscape:label=""
       inkscape:color="rgb(0,0,255)" />
    <sodipodi:guide
       position="110.67024,-17.318625"
       orientation="-0.99026807,0.1391731"
       id="guide3690"
       inkscape:locked="false"
       inkscape:label=""
       inkscape:color="rgb(0,0,255)" />
    <sodipodi:guide
       position="264.42583,132.29166"
       orientation="0,1"
       id="guide3695"
       inkscape:locked="false"
       inkscape:label=""
       inkscape:color="rgb(0,0,255)" />
    <sodipodi:guide
       position="132.29166,109.78582"
       orientation="1,0"
       id="guide3737"
       inkscape:locked="false"
       inkscape:label=""
       inkscape:color="rgb(0,0,255)" />
    <sodipodi:guide
       position="282.85327,108.2678"
       orientation="1,0"
       id="guide3785"
       inkscape:locked="false" />
    <sodipodi:guide
       position="527.47909,421.14695"
       orientation="0,1"
       id="guide4614"
       inkscape:locked="false" />
    <sodipodi:guide
       position="488.05257,533.45281"
       orientation="0,1"
       id="guide4618"
       inkscape:locked="false" />
    <sodipodi:guide
       position="366.48745,587.51493"
       orientation="1,0"
       id="guide4635"
       inkscape:locked="false" />
    <sodipodi:guide
       position="628.43489,308.8411"
       orientation="0,1"
       id="guide4637"
       inkscape:locked="false" />
    <sodipodi:guide
       position="478.49462,390.97969"
       orientation="1,0"
       id="guide4673"
       inkscape:locked="false" />
    <sodipodi:guide
       position="234.16965,79.450418"
       orientation="0,1"
       id="guide4746"
       inkscape:locked="false"
       inkscape:label=""
       inkscape:color="rgb(0,0,255)" />
    <sodipodi:guide
       position="-109.40302,185.20833"
       orientation="0,1"
       id="guide4748"
       inkscape:locked="false"
       inkscape:label=""
       inkscape:color="rgb(0,0,255)" />
    <sodipodi:guide
       position="39.6875,132.29166"
       orientation="1,0"
       id="guide4750"
       inkscape:locked="false"
       inkscape:label=""
       inkscape:color="rgb(0,0,255)" />
    <sodipodi:guide
       position="224.89583,153.7556"
       orientation="1,0"
       id="guide4752"
       inkscape:locked="false"
       inkscape:label=""
       inkscape:color="rgb(0,0,255)" />
  </sodipodi:namedview>
  <metadata
     id="metadata5">
    <rdf:RDF>
      <cc:Work
         rdf:about="">
        <dc:format>image/svg+xml</dc:format>
        <dc:type
           rdf:resource="http://purl.org/dc/dcmitype/StillImage" />
        <dc:title />
      </cc:Work>
    </rdf:RDF>
  </metadata>
  <g
     inkscape:label="Layer 1"
     inkscape:groupmode="layer"
     id="layer1"
     transform="translate(0,-32.416692)">
    <path
       style="fill:#000000;fill-opacity:1;stroke:#ffffff;stroke-width:0;stroke-miterlimit:4;stroke-dasharray:none;stroke-opacity:1"
       d="M 530.91406,168.93359 412.15625,342.60547 c -4.68251,13.087 -10.29702,26.85331 -16.94922,41.3418 21.19045,-6.06036 42.51304,-20.82976 63.9707,-40.45118 18.33497,-16.76597 36.64408,-36.43289 55.28907,-55.26562 z"
       transform="matrix(0.26458333,0,0,0.26458333,0,32.416692)"
       id="path4769" />
    <path
       style="fill:#000000;fill-opacity:1;stroke:#ffffff;stroke-width:0;stroke-miterlimit:4;stroke-dasharray:none;stroke-opacity:1"
       d="m 506.51562,345.90039 c -26.29623,42.41939 -56.21715,85.26592 -108.71093,126.83789 28.73729,0.66387 60.52648,-6.14247 93.1875,-14.23828 z"
       transform="matrix(0.26458333,0,0,0.26458333,0,32.416692)"
       id="path4763" />
    <path
       style="fill:#000000;fill-opacity:1;stroke:#ffffff;stroke-width:0;stroke-miterlimit:4;stroke-dasharray:none;stroke-opacity:1"
       d="m 483.85742,510.24414 c -25.86675,17.07961 -52.58744,32.74778 -81.32812,44.17383 19.34581,3.6937 43.08729,5.12206 65.72093,6.39227 l 11.18727,-18.51141 z"
       transform="matrix(0.26458333,0,0,0.26458333,0,32.416692)"
       id="rect4756"
       inkscape:connector-curvature="0"
       sodipodi:nodetypes="ccccc" />
    <path
       style="fill:#336699;fill-opacity:1;stroke:#ffffff;stroke-width:0;stroke-miterlimit:4;stroke-dasharray:none;stroke-opacity:1"
       d="m 560.45898,567.96875 c -1.38291,0.0509 -5.55769,1.10534 -11.83203,5.66602 -10.5441,7.66425 -25.34025,22.9078 -42.90039,41.18554 l -38.0625,276.07617 c 27.68344,-54.4474 46.96061,-94.49138 89.46875,-154.40234 -2.85609,-51.46244 16.57411,-105.65763 8.79492,-155.94531 -0.87643,-5.08509 -2.11044,-8.57683 -3.16992,-10.44531 -1.05944,-1.86857 -1.55273,-1.99574 -1.8789,-2.10157 -0.0816,-0.0264 -0.22237,-0.0405 -0.41993,-0.0332 z"
       id="path4755"
       transform="matrix(0.26458333,0,0,0.26458333,0,32.416692)"
       inkscape:connector-curvature="0"
       sodipodi:nodetypes="ccccccccc" />
    <path
       style="fill:#336699;fill-opacity:1;stroke:#ffffff;stroke-width:0;stroke-miterlimit:4;stroke-dasharray:none;stroke-opacity:1"
       d="m 645.26172,574.48633 c -0.86547,0.0311 -1.72236,0.1934 -2.61524,0.44336 -3.57146,0.99987 -8.51694,4.72149 -13.65234,11.44531 -10.27079,13.44767 -20.73224,37.46134 -30.0625,63.13477 -8.62733,23.7392 -16.47505,48.89571 -23.64062,69.44921 25.40083,-35.49988 55.29496,-75.80177 91.11718,-124.04101 -4.32146,-7.48597 -8.32108,-12.72448 -11.84961,-15.85547 -4.01921,-3.56641 -6.70045,-4.66943 -9.29687,-4.57617 z"
       id="path4753"
       transform="matrix(0.26458333,0,0,0.26458333,0,32.416692)" />
    <path
       style="fill:#2a9f7d;fill-opacity:1;stroke:none;stroke-width:6;stroke-miterlimit:4;stroke-dasharray:none;stroke-opacity:1"
       d="M 564.14258 5.9785156 L 526.94727 275.76367 C 532.55855 269.93046 538.28011 264.0158 544.15625 258.01367 L 578.87695 6.1816406 L 564.14258 5.9785156 z M 540.0332 287.91992 C 533.42481 300.04991 526.91706 311.5775 520.50586 322.49023 L 502.04102 456.41406 C 503.17763 456.16385 504.2444 455.74683 505.26172 455.21289 L 523.36719 408.66992 C 523.63249 406.8171 523.90009 404.941 524.13672 403.22461 L 540.0332 287.91992 z M 493.17773 627.78516 C 485.69977 635.10301 480.28065 639.84686 476.35156 642.75586 L 430.875 972.60352 L 445.60938 972.80664 L 493.17773 627.78516 z "
       transform="matrix(0.26458333,0,0,0.26458333,0,32.416692)"
       id="rect5130" />
    <path
       style="fill:#336699;fill-opacity:1;stroke:none;stroke-width:15.99999905;stroke-linecap:butt;stroke-linejoin:round;stroke-miterlimit:4;stroke-dasharray:none;stroke-opacity:1;paint-order:markers stroke fill"
       d="m 847.85156,42.072266 c -40.34196,5.968066 -45.59694,19.831149 -63.90429,59.658204 -19.41272,39.98891 -25.94129,50.69357 -56.99219,78.30273 0,0 -20.82377,2.47056 -31.0332,7.82422 -10.20939,5.35376 -24.70508,22.51953 -24.70508,22.51953 -60.72246,41.2938 -117.76043,127.06364 -133.3418,184.56055 -2.71093,9.34722 -17.37374,47.87527 -20.60938,58.125 29.09921,-8.53391 46.09014,-10.36461 60.43165,-17.89453 -30.64032,32.30467 -62.51504,53.69514 -82.62891,68.30921 -7.75418,21.93576 -6.61122,36.3696 -12.41797,58.39391 15.66032,1.4592 30.74842,2.5179 44.55469,3.60938 -7.73071,5.38721 -30.10946,21.18902 -64.69336,37.26953 -22.87137,46.98898 -48.78048,87.29447 -75.75586,106.95508 142.76315,-97.39333 216.32243,-290.42434 179.05273,9.41015 30.01758,-84.05661 74.87452,-270.16117 137.0586,-52.07812 -0.0861,-6.88339 0.94233,-264.7695 121.04101,-100.86719 21.69915,-59.3799 -26.36167,-107.59774 -33.39453,-143.53515 -67.95668,45.85662 -113.82361,61.56917 -169.87305,63.27148 -4.03292,0.19774 -8.09428,0.26501 -12.18359,0.17383 4.12598,0.0159 8.17383,-0.0521 12.18359,-0.17383 88.03236,-4.31643 161.52717,-74.57657 172.23243,-84.95898 44.61093,-39.97909 50.33554,-192.84784 91.30078,-160.08789 C 901.93277,174.1943 852.25226,102.13851 847.85156,42.072266 Z"
       transform="matrix(0.26458333,0,0,0.26458333,0,32.416692)"
       id="rect3818-0-2"
       inkscape:connector-curvature="0"
       sodipodi:nodetypes="ccccccccccccccccccccccc" />
    <path
       style="fill:#fffeff;fill-opacity:1;stroke:none;stroke-width:4.23333311;stroke-linecap:butt;stroke-linejoin:round;stroke-miterlimit:4;stroke-dasharray:none;stroke-opacity:1;paint-order:markers stroke fill"
       d="m 180.86731,102.07112 c 2.91214,-9.987764 1.20543,-6.11691 8.79906,-13.349456 0,0 -1.90209,7.680205 -3.50555,9.732206 -1.60347,2.05201 -5.29351,3.61725 -5.29351,3.61725 z"
       id="rect4710-6-9"
       inkscape:connector-curvature="0"
       sodipodi:nodetypes="cczc" />
    <path
       sodipodi:nodetypes="ccccccccccccccccccccccccccc"
       inkscape:connector-curvature="0"
       id="rect3818-0"
       d="m 103.57024,69.002131 c -0.25651,19.838962 4.75245,50.062839 -33.625572,82.523939 l -9.764744,21.11994 c -5.570951,3.89791 -7.826253,10.69208 -11.09922,16.5973 -2.536965,-1.53988 -3.414514,-4.97944 -4.566226,-8.1051 -3.022238,6.85991 -2.138084,11.79406 1.265442,15.48624 l -2.956789,2.96211 0.806176,15.00346 -2.577635,9.12196 4.55994,7.55155 c -1.205787,10.92715 -2.516781,13.97479 -8.175696,24.28513 l -3.271868,14.41908 8.630085,7.18065 c 10.718148,3.20603 20.074739,4.09382 27.263075,1.2899 -3.149283,-1.31344 -6.634293,-2.4297 -8.355189,-4.58205 l 7.549591,-0.97666 c 0.563814,-6.19939 3.312825,-29.96142 30.462833,-43.80149 1.853207,-5.63633 3.003537,-11.45537 3.663697,-17.40186 5.03489,-9.90673 9.50043,-12.08071 14.78015,-13.0621 -5.40346,-2.7157 -5.13629,-1.22531 -12.56616,-1.62124 12.65776,-2.87826 18.62784,-8.76411 29.76563,-13.61951 -13.21077,-0.39446 -26.39723,-0.81064 -36.366148,-4.09725 17.711488,-5.10675 32.520258,-17.29217 48.036428,-27.75248 -16.07632,3.5439 -32.95509,9.76358 -47.269519,7.43262 24.828139,-17.87914 31.620889,-36.65548 44.208579,-55.14353 -14.14295,12.95024 -27.71459,31.72935 -43.00643,32.9573 18.84535,-38.155994 9.56216,-56.43566 2.60957,-67.767909 z"
       style="fill:#000000;fill-opacity:1;stroke:none;stroke-width:4.23333311;stroke-linecap:butt;stroke-linejoin:round;stroke-miterlimit:4;stroke-dasharray:none;stroke-opacity:1;paint-order:stroke markers fill" />
    <path
       sodipodi:nodetypes="cczc"
       inkscape:connector-curvature="0"
       id="rect4710-6"
       d="m 53.160774,210.3069 c -3.280463,9.87294 -2.484718,5.71801 -0.347447,15.98472 0,0 2.800052,-7.40024 2.647018,-9.99991 -0.153075,-2.59971 -2.299571,-5.98481 -2.299571,-5.98481 z"
       style="fill:#ffffff;fill-opacity:1;stroke:none;stroke-width:1.58749998;stroke-linecap:butt;stroke-linejoin:round;stroke-miterlimit:4;stroke-dasharray:none;stroke-opacity:1;paint-order:normal" />
  </g>
</svg>
